<?xml version="1.0" encoding="UTF-8"?>
<svg version="1.1" xmlns="http://www.w3.org/2000/svg" width="246" height="245">
<path d="M0 0 C0.66128906 0.39703125 1.32257813 0.7940625 2.00390625 1.203125 C3.6875 2.25 3.6875 2.25 6 4 C6 4.66 6 5.32 6 6 C6.66 6 7.32 6 8 6 C8 6.66 8 7.32 8 8 C8.515625 8.226875 9.03125 8.45375 9.5625 8.6875 C12.89547005 10.48217618 16.14703671 12.49965015 19 15 C19 15.66 19 16.32 19 17 C19.66 17 20.32 17 21 17 C21 17.66 21 18.32 21 19 C21.804375 19.37125 21.804375 19.37125 22.625 19.75 C25.5823982 21.30652537 28.29724051 23.03435673 31 25 C31 25.66 31 26.32 31 27 C31.87180908 27.40206665 31.87180908 27.40206665 32.76123047 27.81225586 C35.0371682 29.01971901 36.83943275 30.36169627 38.8203125 32.00390625 C39.52027344 32.57947266 40.22023437 33.15503906 40.94140625 33.74804688 C41.66199219 34.34681641 42.38257813 34.94558594 43.125 35.5625 C44.5637355 36.75295813 46.00377821 37.94183873 47.4453125 39.12890625 C48.07969238 39.65556885 48.71407227 40.18223145 49.36767578 40.72485352 C50.9849104 42.07503592 50.9849104 42.07503592 53 43 C53 43.66 53 44.32 53 45 C53.515625 45.226875 54.03125 45.45375 54.5625 45.6875 C57.89547005 47.48217618 61.14703671 49.49965015 64 52 C64 52.66 64 53.32 64 54 C64.5775 54.2475 65.155 54.495 65.75 54.75 C68.32939979 56.18299988 70.06121592 57.78424676 72 60 C72 60.66 72 61.32 72 62 C72.66 62 73.32 62 74 62 C77.58297612 68.97400708 78.40922392 75.53345712 78.4375 83.25 C78.45200195 84.52665527 78.45200195 84.52665527 78.46679688 85.82910156 C78.3245646 96.53417166 73.87333929 101.71912987 66.46484375 108.99609375 C65.63038223 109.82963882 64.79592072 110.6631839 63.93617249 111.52198792 C62.17824351 113.27389437 60.41547575 115.02095722 58.64819336 116.76342773 C55.93281579 119.44212093 53.23395556 122.13664763 50.53710938 124.83398438 C48.82646488 126.53480419 47.11490798 128.23470694 45.40234375 129.93359375 C44.59087387 130.74283798 43.77940399 131.55208221 42.94334412 132.385849 C42.19238968 133.12404373 41.44143524 133.86223846 40.66772461 134.62280273 C40.00614853 135.27675522 39.34457245 135.9307077 38.66294861 136.60447693 C37 138 37 138 35 138 C35 138.66 35 139.32 35 140 C34.34 140 33.68 140 33 140 C33 140.66 33 141.32 33 142 C32.34 142 31.68 142 31 142 C31 142.66 31 143.32 31 144 C30.34 144 29.68 144 29 144 C29 144.66 29 145.32 29 146 C27.5390625 147.5078125 27.5390625 147.5078125 25.625 149.125 C24.99851563 149.66382813 24.37203125 150.20265625 23.7265625 150.7578125 C22 152 22 152 20 152 C20 152.66 20 153.32 20 154 C18.27734375 155.40234375 18.27734375 155.40234375 15.9375 156.9375 C15.18339844 157.44152344 14.42929688 157.94554687 13.65234375 158.46484375 C7.7475103 161.88251613 3.11888743 163.44928148 -3.72021484 163.40405273 C-4.45780533 163.41091599 -5.19539581 163.41777924 -5.95533752 163.42485046 C-8.37407121 163.44303064 -10.79215068 163.43929324 -13.2109375 163.43359375 C-14.90573332 163.43816028 -16.60052729 163.44346725 -18.2953186 163.44947815 C-21.84083597 163.45839239 -25.3861279 163.45600603 -28.93164062 163.44604492 C-33.45633613 163.43456634 -37.98024989 163.45475794 -42.50484276 163.48396206 C-46.00349808 163.50238478 -49.50196824 163.50201942 -53.00065994 163.49632454 C-54.66788452 163.49617202 -56.33512221 163.50215872 -58.00230026 163.51461601 C-74.55444179 163.62086965 -74.55444179 163.62086965 -82 159 C-82.99 158.443125 -83.98 157.88625 -85 157.3125 C-88.55059694 154.57558152 -91.57754814 151.50365257 -94.70703125 148.30078125 C-98.68074205 144.3135314 -102.97416491 140.70614928 -107.27734375 137.08203125 C-108.01082031 136.45683594 -108.74429688 135.83164063 -109.5 135.1875 C-110.1703125 134.62417969 -110.840625 134.06085938 -111.53125 133.48046875 C-113 132 -113 132 -113 130 C-113.66 130 -114.32 130 -115 130 C-115 129.34 -115 128.68 -115 128 C-115.66 128 -116.32 128 -117 128 C-117 127.34 -117 126.68 -117 126 C-117.66 126 -118.32 126 -119 126 C-119 125.34 -119 124.68 -119 124 C-119.66 124 -120.32 124 -121 124 C-121 123.34 -121 122.68 -121 122 C-121.66 122 -122.32 122 -123 122 C-123 121.34 -123 120.68 -123 120 C-123.8353125 119.6596875 -123.8353125 119.6596875 -124.6875 119.3125 C-127.66159588 117.62449964 -129.72008865 115.53323483 -132 113 C-132 112.34 -132 111.68 -132 111 C-132.66 111 -133.32 111 -134 111 C-134 110.34 -134 109.68 -134 109 C-134.66 109 -135.32 109 -136 109 C-136 108.34 -136 107.68 -136 107 C-136.66 107 -137.32 107 -138 107 C-138 106.34 -138 105.68 -138 105 C-138.5775 104.773125 -139.155 104.54625 -139.75 104.3125 C-144.17152519 101.73327697 -146.51982639 97.79142407 -148 93 C-148.33973518 89.78894258 -148.37979343 86.60217748 -148.375 83.375 C-148.37628906 82.48651367 -148.37757813 81.59802734 -148.37890625 80.68261719 C-148.26950504 73.87239159 -147.1417914 68.11527256 -144 62 C-143.34 62 -142.68 62 -142 62 C-141.7525 61.4225 -141.505 60.845 -141.25 60.25 C-139.81700012 57.67060021 -138.21575324 55.93878408 -136 54 C-135.34 54 -134.68 54 -134 54 C-134 53.34 -134 52.68 -134 52 C-132.1015625 50.2734375 -132.1015625 50.2734375 -129.625 48.375 C-128.81289062 47.74335937 -128.00078125 47.11171875 -127.1640625 46.4609375 C-125 45 -125 45 -123 45 C-123 44.34 -123 43.68 -123 43 C-122.34 43 -121.68 43 -121 43 C-121 42.34 -121 41.68 -121 41 C-119.50674566 39.81149144 -117.95098717 38.7013947 -116.375 37.625 C-110.88641185 33.75739384 -105.85076546 29.52756394 -100.86083984 25.03759766 C-98.32286205 22.79614331 -96.39113899 21.15448347 -93.2109375 19.8984375 C-90.37206748 18.74483307 -90.28603445 17.7084665 -89 15 C-86.46875 12.640625 -86.46875 12.640625 -83.5 10.25 C-82.5203125 9.45078125 -81.540625 8.6515625 -80.53125 7.828125 C-78 6 -78 6 -76 6 C-76 5.34 -76 4.68 -76 4 C-54.94869571 -14.48975177 -22.98787452 -14.61793046 0 0 Z M-72 23 C-72 23.66 -72 24.32 -72 25 C-72.66 25 -73.32 25 -74 25 C-74 25.66 -74 26.32 -74 27 C-74.53109375 27.2371875 -75.0621875 27.474375 -75.609375 27.71875 C-78.69742595 29.37378384 -81.4528472 31.40548128 -84.25 33.5 C-84.80429688 33.90347656 -85.35859375 34.30695312 -85.9296875 34.72265625 C-87.32569165 35.76450171 -88.66802392 36.87745412 -90 38 C-90 38.66 -90 39.32 -90 40 C-90.53625 40.2475 -91.0725 40.495 -91.625 40.75 C-94.5823982 42.30652537 -97.29724051 44.03435673 -100 46 C-100 46.66 -100 47.32 -100 48 C-100.52078125 48.226875 -101.0415625 48.45375 -101.578125 48.6875 C-104.87684535 50.47519361 -107.78457421 52.71890324 -110.75 55 C-111.35199219 55.45117188 -111.95398438 55.90234375 -112.57421875 56.3671875 C-114.08906356 57.52822502 -115.54969821 58.75927939 -117 60 C-117 60.66 -117 61.32 -117 62 C-118.65 62.66 -120.3 63.32 -122 64 C-122 64.66 -122 65.32 -122 66 C-122.7425 66.20625 -123.485 66.4125 -124.25 66.625 C-127.83368332 68.41684166 -129.03492182 70.56111318 -131 74 C-132.62971742 78.88915225 -132.99108961 84.26714401 -131.2109375 89.17578125 C-129.46532121 92.39384487 -128.53693671 93.8210211 -125 95 C-125 95.66 -125 96.32 -125 97 C-124.34 97 -123.68 97 -123 97 C-123 97.66 -123 98.32 -123 99 C-122.34 99 -121.68 99 -121 99 C-121 99.66 -121 100.32 -121 101 C-120.34 101 -119.68 101 -119 101 C-119 101.66 -119 102.32 -119 103 C-118.34 103 -117.68 103 -117 103 C-117 103.66 -117 104.32 -117 105 C-116.34 105 -115.68 105 -115 105 C-115 105.66 -115 106.32 -115 107 C-114.34 107 -113.68 107 -113 107 C-113 107.66 -113 108.32 -113 109 C-112.34 109 -111.68 109 -111 109 C-111 109.66 -111 110.32 -111 111 C-110.34 111 -109.68 111 -109 111 C-109 111.66 -109 112.32 -109 113 C-108.34 113 -107.68 113 -107 113 C-106.77441406 113.55171875 -106.54882812 114.1034375 -106.31640625 114.671875 C-104.60446306 117.69952527 -102.41342989 119.81325749 -99.9375 122.25 C-98.58978516 123.58804688 -98.58978516 123.58804688 -97.21484375 124.953125 C-95.38023731 127.11311839 -95.38023731 127.11311839 -94 127 C-94.00222061 126.45257645 -94.00444122 125.90515289 -94.00672913 125.34114075 C-94.02906106 119.58103089 -94.04402145 113.82093357 -94.05493164 108.06079102 C-94.059923 105.91853332 -94.06671843 103.77627896 -94.07543945 101.6340332 C-94.22094865 64.9400368 -94.22094865 64.9400368 -86.546875 56.37890625 C-79.67348442 50.28329408 -72.74181775 48.88694698 -63.8581543 48.83886719 C-63.15826385 48.83390228 -62.45837341 48.82893738 -61.73727417 48.82382202 C-59.43291218 48.8092749 -57.12861902 48.80241092 -54.82421875 48.796875 C-53.21385193 48.79111744 -51.60348511 48.78535979 -49.99311829 48.77960205 C-46.6198393 48.76911326 -43.246584 48.76325672 -39.87329102 48.75976562 C-35.56607018 48.75428518 -31.25916611 48.73025793 -26.95204449 48.70179367 C-23.62589117 48.68310424 -20.29981321 48.67795835 -16.97361183 48.67642975 C-15.38649578 48.67341694 -13.79938061 48.6654351 -12.21231651 48.65224457 C-1.34208274 48.5683463 7.00911193 49.05249558 16 56 C23.33912095 63.75849929 23.45971776 71.38138119 23.51171875 81.58984375 C23.52966995 82.88950577 23.54762115 84.18916779 23.56611633 85.5282135 C23.61338717 88.96236184 23.64334372 92.39644554 23.66955566 95.83081055 C23.69947786 99.34371704 23.74596771 102.8564013 23.79101562 106.36914062 C23.8767872 113.24596662 23.94424787 120.12286683 24 127 C26.03833424 125.7260411 28.03852126 124.38938077 30 123 C30 122.34 30 121.68 30 121 C30.66 121 31.32 121 32 121 C32 120.34 32 119.68 32 119 C32.66 119 33.32 119 34 119 C35.45475427 117.54435588 35.45475427 117.54435588 36.98046875 115.6171875 C39.82101163 112.27095585 42.79587915 109.20797177 45.98828125 106.1953125 C46.85904297 105.36386719 47.72980469 104.53242187 48.62695312 103.67578125 C50.42373805 101.96916226 52.23383455 100.27645416 54.05664062 98.59765625 C59.03133636 93.797316 62.16578241 90.19004875 62.97583008 83.18701172 C63.00518698 80.53065696 62.71297686 78.45753045 61.6875 76 C61.40261719 75.278125 61.11773437 74.55625 60.82421875 73.8125 C60.24103721 72.53005338 59.63004286 71.26008572 59 70 C58.34 70 57.68 70 57 70 C57 69.34 57 68.68 57 68 C56.34 68 55.68 68 55 68 C55 67.34 55 66.68 55 66 C53.28502228 64.41173778 53.28502228 64.41173778 51.125 62.875 C50.40570313 62.33617187 49.68640625 61.79734375 48.9453125 61.2421875 C47.10373994 59.82060368 47.10373994 59.82060368 45 60 C45 59.34 45 58.68 45 58 C42.9102773 56.20460444 40.82157918 54.52938558 38.625 52.875 C38.02171875 52.40707031 37.4184375 51.93914062 36.796875 51.45703125 C33.74265059 48.86385761 33.74265059 48.86385761 30 48 C30 47.34 30 46.68 30 46 C27.82735345 43.95543941 27.82735345 43.95543941 25.125 41.875 C24.22007812 41.15054688 23.31515625 40.42609375 22.3828125 39.6796875 C20.21344189 37.80794766 20.21344189 37.80794766 18 38 C18 37.34 18 36.68 18 36 C16.27852222 34.62340232 14.49622345 33.32227237 12.6875 32.0625 C7.27042637 28.27408903 7.27042637 28.27408903 5.26953125 26.24609375 C4.0585942 24.76650386 4.0585942 24.76650386 2 25 C2 24.34 2 23.68 2 23 C0.05624046 21.18371224 0.05624046 21.18371224 -2.375 19.375 C-3.18710938 18.74335937 -3.99921875 18.11171875 -4.8359375 17.4609375 C-6.84109879 15.81349192 -6.84109879 15.81349192 -9 16 C-9 15.34 -9 14.68 -9 14 C-10.49434423 13.19770863 -11.99586472 12.40878133 -13.5 11.625 C-14.3353125 11.18414063 -15.170625 10.74328125 -16.03125 10.2890625 C-36.036853 1.60241909 -56.71098572 8.53741892 -72 23 Z M-77 69 C-78.43676306 71.87352611 -78.15117343 74.36199042 -78.17700195 77.57348633 C-78.18357315 78.24849686 -78.19014435 78.92350739 -78.19691467 79.61897278 C-78.21665263 81.85666004 -78.22831158 84.09428015 -78.23828125 86.33203125 C-78.24235678 87.09623571 -78.2464323 87.86044018 -78.25063133 88.64780235 C-78.27149468 92.69301458 -78.28579495 96.73819286 -78.29516602 100.78344727 C-78.30622824 104.9599945 -78.34062461 109.13600862 -78.38033772 113.31236744 C-78.40649503 116.52517176 -78.41485705 119.73784892 -78.41844749 122.95075035 C-78.42331617 124.49012539 -78.4349383 126.02949464 -78.45348549 127.56876564 C-78.47785868 129.72571547 -78.47691619 131.88128444 -78.4699707 134.03833008 C-78.47583694 135.26473709 -78.48170319 136.4911441 -78.48774719 137.75471497 C-77.90807922 141.61160602 -76.70953281 143.24939184 -74 146 C-71.04030952 147.47984524 -68.36257713 147.16006912 -65.05932617 147.19287109 C-63.98828896 147.20513733 -63.98828896 147.20513733 -62.89561462 147.21765137 C-60.52807455 147.24250302 -58.16059443 147.2590208 -55.79296875 147.2734375 C-54.98463404 147.27876118 -54.17629932 147.28408485 -53.34346962 147.28956985 C-49.06484551 147.31630064 -44.78625057 147.3356756 -40.50756836 147.35009766 C-36.08878231 147.36674436 -31.67074228 147.41152169 -27.25223827 147.4624691 C-23.85414272 147.49613005 -20.4562245 147.50767375 -17.05797768 147.51332474 C-15.42926648 147.52004062 -13.80056709 147.53527165 -12.17201805 147.55921555 C-9.89034676 147.59084751 -7.61069054 147.59090812 -5.32885742 147.58349609 C-4.03139084 147.59158295 -2.73392426 147.5996698 -1.3971405 147.60800171 C2.84931849 146.8479936 4.2835469 145.26064187 7 142 C7.33 141.67 7.66 141.34 8 141 C8.12068028 138.81847005 8.17028537 136.6329908 8.19287109 134.44824219 C8.20104858 133.76362411 8.20922607 133.07900604 8.21765137 132.37364197 C8.24255133 130.09806198 8.25903509 127.82254467 8.2734375 125.546875 C8.28142302 124.38264385 8.28142302 124.38264385 8.28956985 123.19489288 C8.31632455 119.08485399 8.33568982 114.97484567 8.35009766 110.86474609 C8.3667295 106.6196718 8.41148723 102.37537633 8.4624691 98.13059616 C8.49614067 94.86717851 8.50767506 91.60394544 8.51332474 88.34037018 C8.5200402 86.7758516 8.53527019 85.21134529 8.55921555 83.64699554 C8.59086422 81.45380019 8.59090562 79.26270002 8.58349609 77.06933594 C8.59158295 75.82214783 8.5996698 74.57495972 8.60800171 73.28997803 C7.8382894 69.12496245 6.19100996 67.67893252 3 65 C2.505 64.505 2.505 64.505 2 64 C-0.27341602 63.8791827 -2.55063621 63.82969645 -4.82714844 63.80712891 C-5.54102722 63.79895142 -6.25490601 63.79077393 -6.99041748 63.78234863 C-9.36339468 63.75744726 -11.73631179 63.74096473 -14.109375 63.7265625 C-15.32325268 63.71857698 -15.32325268 63.71857698 -16.56165314 63.71043015 C-20.84675653 63.68367514 -25.13183058 63.66430975 -29.41699219 63.64990234 C-33.84365416 63.63326838 -38.26956957 63.58850869 -42.69594955 63.5375309 C-46.09833629 63.50386599 -49.50054595 63.49232566 -52.9030838 63.48667526 C-54.53458598 63.47995823 -56.16607633 63.46472423 -57.79741669 63.44078445 C-60.08398533 63.40915008 -62.36854326 63.40909253 -64.65527344 63.41650391 C-66.60599762 63.40437363 -66.60599762 63.40437363 -68.59613037 63.39199829 C-72.8634745 64.15423445 -74.30596314 65.68469227 -77 69 Z " fill="#F0F0F0" transform="translate(161,15)"/>
<path d="M0 0 C6.10648569 2.91556128 12.07245154 7.40647306 16 13 C16.89926169 16.47497503 17.00092469 19.42581157 16.98828125 23.00390625 C17.0064419 27.64697922 17.96800851 30.47853903 21 34 C28.22711378 40.39684483 36.16061201 45.94849334 44.0859375 51.44140625 C44.71757813 51.95574219 45.34921875 52.47007812 46 53 C46 53.66 46 54.32 46 55 C46.57975586 55.27779297 47.15951172 55.55558594 47.75683594 55.84179688 C51.45691854 57.7522444 54.81663903 60.1524546 58.25 62.5 C58.99507812 62.99886719 59.74015625 63.49773437 60.5078125 64.01171875 C61.21164063 64.49253906 61.91546875 64.97335938 62.640625 65.46875 C63.28547852 65.90638672 63.93033203 66.34402344 64.59472656 66.79492188 C65.0584668 67.19259766 65.52220703 67.59027344 66 68 C66 68.66 66 69.32 66 70 C66.81404297 70.36351562 66.81404297 70.36351562 67.64453125 70.734375 C70.56790586 72.30514345 73.05631545 74.22759933 75.6875 76.25 C91.81031951 88.44436706 104.45555218 93.22277918 125 91 C135.26149269 88.85372829 143.49107708 81.73473504 151.49609375 75.359375 C155.78529576 72 155.78529576 72 158 72 C158 71.34 158 70.68 158 70 C159.59381506 68.70409429 161.25324782 67.48847306 162.9375 66.3125 C167.49043359 63.0948583 171.89125441 59.75898377 176.22265625 56.25 C178 55 178 55 180 55 C180 54.34 180 53.68 180 53 C181.53340507 51.76844632 183.13066189 50.61615395 184.75 49.5 C190.29728856 45.58595983 195.42955617 41.34170963 200.56640625 36.90625 C203 35 203 35 205 35 C205 34.34 205 33.68 205 33 C205.66 33 206.32 33 207 33 C208.62008359 28.35576039 209.12229995 24.30341904 209.3125 19.375 C209.7436627 12.43647432 209.7436627 12.43647432 212.4375 9.6875 C215 8 215 8 217 8 C217 7.34 217 6.68 217 6 C217.66 6 218.32 6 219 6 C219 5.34 219 4.68 219 4 C223.47058824 0 223.47058824 0 226 0 C226.10024553 3.928468 226.17210244 7.85642234 226.21972656 11.78588867 C226.24930134 13.76572908 226.30017533 15.74521501 226.3515625 17.72460938 C226.46001895 28.4346837 225.04204256 37.6375461 217.453125 45.62890625 C212.82051282 50 212.82051282 50 210 50 C210 50.66 210 51.32 210 52 C207.97422532 53.74939462 205.94056638 55.38295871 203.8125 57 C203.18553223 57.48404297 202.55856445 57.96808594 201.91259766 58.46679688 C200.60123881 59.47801267 199.28771551 60.48642706 197.97216797 61.4921875 C196.08242221 62.93698446 194.19843649 64.38892284 192.31640625 65.84375 C189.21712321 68.2372984 186.11243187 70.62355629 183 73 C182.26007813 73.5878125 181.52015625 74.175625 180.7578125 74.78125 C179 76 179 76 177 76 C177 76.66 177 77.32 177 78 C171.58823529 82 171.58823529 82 169 82 C169 82.66 169 83.32 169 84 C167.5390625 85.2890625 167.5390625 85.2890625 165.625 86.625 C164.99851563 87.07101563 164.37203125 87.51703125 163.7265625 87.9765625 C162 89 162 89 160 89 C160 89.66 160 90.32 160 91 C142.67740428 106.04900503 123.42148601 109.42238548 101 108 C92.3877148 106.82929289 84.52003605 103.22785437 77 99 C77 98.34 77 97.68 77 97 C76.01 97 75.02 97 74 97 C74 96.34 74 95.68 74 95 C73.47921875 94.7628125 72.9584375 94.525625 72.421875 94.28125 C69.20754883 92.58076777 66.24135157 90.55778691 63.25 88.5 C62.34701172 87.89478516 62.34701172 87.89478516 61.42578125 87.27734375 C59.91277798 86.23779729 58.45127837 85.12411157 57 84 C57 83.34 57 82.68 57 82 C56.42435303 81.72994141 55.84870605 81.45988281 55.25561523 81.18164062 C52.96334676 79.9807986 50.98909053 78.63244685 48.91015625 77.09375 C48.1313208 76.51915039 47.35248535 75.94455078 46.55004883 75.35253906 C45.72915771 74.74120117 44.9082666 74.12986328 44.0625 73.5 C43.22162842 72.87577148 42.38075684 72.25154297 41.5144043 71.60839844 C39.00660864 69.74291018 36.5031103 67.87176801 34 66 C33.28779297 65.47083984 32.57558594 64.94167969 31.84179688 64.39648438 C29.99321801 63.0214331 28.15148957 61.63783743 26.3125 60.25 C25.27738281 59.47140625 24.24226563 58.6928125 23.17578125 57.890625 C22.45777344 57.26671875 21.73976563 56.6428125 21 56 C21 55.34 21 54.68 21 54 C20.01 54 19.02 54 18 54 C18 53.34 18 52.68 18 52 C17.34 52 16.68 52 16 52 C16 51.34 16 50.68 16 50 C15.319375 49.835 14.63875 49.67 13.9375 49.5 C7.63296637 46.28066368 3.52729072 40.26478954 0.78735352 33.85620117 C-0.9040945 27.72030961 -0.40273194 21.24921937 -0.25 14.9375 C-0.2298969 13.48505077 -0.21165288 12.03257456 -0.1953125 10.58007812 C-0.15163506 7.05281666 -0.08282107 3.52658501 0 0 Z " fill="#EEEEEE" transform="translate(13,128)"/>
<path d="M0 0 C1.06089844 -0.00128906 2.12179688 -0.00257812 3.21484375 -0.00390625 C4.31699219 -0.00003906 5.41914062 0.00382812 6.5546875 0.0078125 C8.21951172 0.00201172 8.21951172 0.00201172 9.91796875 -0.00390625 C11.50544922 -0.00197266 11.50544922 -0.00197266 13.125 0 C14.09453613 0.00112793 15.06407227 0.00225586 16.06298828 0.00341797 C18.4296875 0.1328125 18.4296875 0.1328125 20.4296875 1.1328125 C20.45656901 2.77855816 20.47602873 4.42442663 20.4921875 6.0703125 C20.50378906 6.98683594 20.51539063 7.90335937 20.52734375 8.84765625 C20.4296875 11.1328125 20.4296875 11.1328125 19.4296875 12.1328125 C16.89919348 12.20594817 14.39663913 12.22528777 11.8671875 12.1953125 C11.15626953 12.19080078 10.44535156 12.18628906 9.71289062 12.18164062 C7.95178737 12.16982114 6.19072714 12.15188513 4.4296875 12.1328125 C4.4296875 15.4328125 4.4296875 18.7328125 4.4296875 22.1328125 C5.81994141 22.11541016 5.81994141 22.11541016 7.23828125 22.09765625 C8.43582031 22.08863281 9.63335937 22.07960938 10.8671875 22.0703125 C12.06214844 22.05871094 13.25710937 22.04710938 14.48828125 22.03515625 C17.4296875 22.1328125 17.4296875 22.1328125 18.4296875 23.1328125 C18.5275932 24.63019374 18.55943614 26.13224142 18.5546875 27.6328125 C18.55855469 28.85484375 18.55855469 28.85484375 18.5625 30.1015625 C18.4296875 32.1328125 18.4296875 32.1328125 17.4296875 33.1328125 C15.24329297 33.20540196 13.05468361 33.21655033 10.8671875 33.1953125 C9.07087891 33.18177734 9.07087891 33.18177734 7.23828125 33.16796875 C6.31144531 33.15636719 5.38460937 33.14476562 4.4296875 33.1328125 C4.43492432 33.70314209 4.44016113 34.27347168 4.44555664 34.86108398 C4.46626971 37.43081573 4.4793294 40.00052997 4.4921875 42.5703125 C4.50056641 43.46814453 4.50894531 44.36597656 4.51757812 45.29101562 C4.52080078 46.14501953 4.52402344 46.99902344 4.52734375 47.87890625 C4.53258057 48.66966553 4.53781738 49.4604248 4.54321289 50.27514648 C4.4296875 52.1328125 4.4296875 52.1328125 3.4296875 53.1328125 C1.41004551 53.20525303 -0.61198374 53.21658438 -2.6328125 53.1953125 C-4.28990234 53.18177734 -4.28990234 53.18177734 -5.98046875 53.16796875 C-6.83511719 53.15636719 -7.68976563 53.14476562 -8.5703125 53.1328125 C-9.80111759 50.67120233 -9.69075227 49.06784257 -9.68383789 46.31591797 C-9.68376236 45.31503143 -9.68368683 44.3141449 -9.68360901 43.28292847 C-9.67844772 42.19956207 -9.67328644 41.11619568 -9.66796875 40 C-9.6665538 38.89302765 -9.66513885 37.7860553 -9.66368103 36.64553833 C-9.65807022 33.09960257 -9.64551587 29.55372927 -9.6328125 26.0078125 C-9.62779889 23.60807383 -9.62323575 21.20833417 -9.61914062 18.80859375 C-9.60809728 12.91664525 -9.5913486 7.02473334 -9.5703125 1.1328125 C-6.28898155 0.25361282 -3.40704332 0.00395445 0 0 Z " fill="#EBE9EA" transform="translate(121.5703125,93.8671875)"/>
<path d="M0 0 C0.33 0.99 0.66 1.98 1 3 C0.33097656 3.66515625 -0.33804688 4.3303125 -1.02734375 5.015625 C-3.2490945 7.23502801 -5.44191843 9.48073504 -7.62890625 11.734375 C-8.93996707 13.07305095 -10.25116767 14.41159001 -11.5625 15.75 C-12.22185547 16.43449219 -12.88121094 17.11898437 -13.56054688 17.82421875 C-14.20185547 18.47519531 -14.84316406 19.12617188 -15.50390625 19.796875 C-16.36737671 20.68391113 -16.36737671 20.68391113 -17.24829102 21.58886719 C-19.16963965 23.13665744 -20.58923965 23.59429715 -23 24 C-18.32533663 18.37696243 -13.32234333 13.20258446 -8.125 8.0625 C-7.34125 7.28326172 -6.5575 6.50402344 -5.75 5.70117188 C-3.83561419 3.79845915 -1.91891966 1.89813829 0 0 Z " fill="#A3A3A2" transform="translate(218,109)"/>
<path d="M0 0 C1.97909398 -0.02686553 3.95828971 -0.04633375 5.9375 -0.0625 C7.03964844 -0.07410156 8.14179688 -0.08570312 9.27734375 -0.09765625 C12 0 12 0 13 1 C13.0979057 2.49738124 13.12974864 3.99942892 13.125 5.5 C13.12757813 6.3146875 13.13015625 7.129375 13.1328125 7.96875 C13 10 13 10 12 11 C9.81360547 11.07258946 7.62499611 11.08373783 5.4375 11.0625 C3.64119141 11.04896484 3.64119141 11.04896484 1.80859375 11.03515625 C0.88175781 11.02355469 -0.04507813 11.01195313 -1 11 C-1 10.67 -1 10.34 -1 10 C2.96 10 6.92 10 11 10 C10.67 7.36 10.34 4.72 10 2 C6.7 1.67 3.4 1.34 0 1 C0 0.67 0 0.34 0 0 Z " fill="#807F7F" transform="translate(127,116)"/>
<path d="M0 0 C-1.51398455 3.78496138 -2.0144396 4.0072198 -6 6 C-6 9.96 -6 13.92 -6 18 C-6.33 18 -6.66 18 -7 18 C-7.76144025 6.44302909 -7.76144025 6.44302909 -5.95703125 3.0234375 C-4.07828941 1.13918615 -2.7191776 0 0 0 Z " fill="#C3BFC1" transform="translate(230,136)"/>
<path d="M0 0 C0 0.99 0 1.98 0 3 C-2.25 5.25 -2.25 5.25 -5 7 C-7.3125 6.75 -7.3125 6.75 -9 6 C-8.34 6 -7.68 6 -7 6 C-7 5.34 -7 4.68 -7 4 C-2.52941176 0 -2.52941176 0 0 0 Z " fill="#B1B1B1" transform="translate(239,128)"/>
<path d="M0 0 C1 3 1 3 0 6 C-2.5625 7.6875 -2.5625 7.6875 -5 9 C-4.42647107 5.12867972 -2.51295648 2.91827204 0 0 Z " fill="#CECBCA" transform="translate(75,70)"/>
<path d="M0 0 C-0.75 1.9375 -0.75 1.9375 -2 4 C-4.125 4.75 -4.125 4.75 -6 5 C-6 5.66 -6 6.32 -6 7 C-7.32 7.33 -8.64 7.66 -10 8 C-9.67 7.34 -9.34 6.68 -9 6 C-8.34 6 -7.68 6 -7 6 C-7 5.34 -7 4.68 -7 4 C-6.34 4 -5.68 4 -5 4 C-5 3.34 -5 2.68 -5 2 C-2 0 -2 0 0 0 Z " fill="#9F9F9F" transform="translate(45,54)"/>
<path d="M0 0 C-1.15173355 2.46800047 -2.04783565 4.04783565 -4 6 C-6.125 5.625 -6.125 5.625 -8 5 C-2.25 0 -2.25 0 0 0 Z " fill="#A9A9A9" transform="translate(193,183)"/>
<path d="M0 0 C0.33 0.66 0.66 1.32 1 2 C0.67 2.66 0.34 3.32 0 4 C0.99 4.33 1.98 4.66 3 5 C2.01 5.33 1.02 5.66 0 6 C-0.33 7.98 -0.66 9.96 -1 12 C-1.33 12 -1.66 12 -2 12 C-2.28571429 3.42857143 -2.28571429 3.42857143 0 0 Z " fill="#BEBAB9" transform="translate(69,79)"/>
</svg>
