<?xml version="1.0" encoding="UTF-8"?>
<svg version="1.1" xmlns="http://www.w3.org/2000/svg" width="500" height="500">
<path d="M0 0 C0.66257812 0.39703125 1.32515625 0.7940625 2.0078125 1.203125 C3.6875 2.25 3.6875 2.25 6 4 C6 4.66 6 5.32 6 6 C6.66 6 7.32 6 8 6 C8 6.66 8 7.32 8 8 C9.32 8.33 10.64 8.66 12 9 C12 9.66 12 10.32 12 11 C12.52335938 11.21527344 13.04671875 11.43054688 13.5859375 11.65234375 C16.96795631 13.54036396 19.7133171 16.0245264 22.625 18.5625 C26.55820931 22.14573678 26.55820931 22.14573678 31 25 C31 25.66 31 26.32 31 27 C31.87180908 27.40206665 31.87180908 27.40206665 32.76123047 27.81225586 C35.0371682 29.01971901 36.83943275 30.36169627 38.8203125 32.00390625 C39.52027344 32.57947266 40.22023438 33.15503906 40.94140625 33.74804688 C41.66199219 34.34681641 42.38257813 34.94558594 43.125 35.5625 C44.5637355 36.75295813 46.00377821 37.94183873 47.4453125 39.12890625 C48.07969238 39.65556885 48.71407227 40.18223145 49.36767578 40.72485352 C50.9849104 42.07503592 50.9849104 42.07503592 53 43 C53 43.66 53 44.32 53 45 C54.65 45.66 56.3 46.32 58 47 C58 47.66 58 48.32 58 49 C59.32 49.33 60.64 49.66 62 50 C62 50.66 62 51.32 62 52 C62.53625 52.20625 63.0725 52.4125 63.625 52.625 C66.91978009 54.53250426 69.59363628 57.04819384 72 60 C72 60.66 72 61.32 72 62 C72.66 62 73.32 62 74 62 C77 68.5 77 68.5 77 73 C77.66 73.33 78.32 73.66 79 74 C78.52252256 97.46801609 78.52252256 97.46801609 72.1328125 103.87109375 C70.77096785 105.06591972 69.38159476 106.23019542 67.96484375 107.359375 C66.08263843 108.93099773 64.63774188 110.51627292 63.125 112.4375 C62.42375 113.283125 61.7225 114.12875 61 115 C60.34 115 59.68 115 59 115 C59 115.66 59 116.32 59 117 C57.54443359 118.42993164 57.54443359 118.42993164 55.5234375 120.09765625 C50.18136506 124.63806467 45.35277682 129.62803839 40.47265625 134.65429688 C39.79332031 135.34458984 39.11398437 136.03488281 38.4140625 136.74609375 C37.50068115 137.68473267 37.50068115 137.68473267 36.56884766 138.64233398 C35 140 35 140 33 140 C33 140.66 33 141.32 33 142 C32.34 142 31.68 142 31 142 C31 142.66 31 143.32 31 144 C30.34 144 29.68 144 29 144 C29 144.66 29 145.32 29 146 C27.35546875 147.69140625 27.35546875 147.69140625 25.1875 149.5625 C24.47980469 150.18253906 23.77210938 150.80257812 23.04296875 151.44140625 C21 153 21 153 18 154 C18 154.66 18 155.32 18 156 C16.60635 156.79550392 15.20996569 157.58621838 13.8125 158.375 C13.03519531 158.81585938 12.25789062 159.25671875 11.45703125 159.7109375 C6.03958097 162.55316102 1.26233619 163.53920197 -4.76953125 164.11328125 C-5.63890823 164.19757889 -6.50828522 164.28187653 -7.40400696 164.36872864 C-17.43896144 165.25051431 -27.46786401 165.2664952 -37.53442383 165.20581055 C-40.75024054 165.18713565 -43.96577446 165.18530448 -47.18164062 165.18554688 C-49.22916918 165.18064483 -51.27669579 165.17482234 -53.32421875 165.16796875 C-54.284384 165.16685593 -55.24454926 165.1657431 -56.23381042 165.16459656 C-57.1101564 165.15821671 -57.98650238 165.15183685 -58.8894043 165.14526367 C-59.66180954 165.14145187 -60.43421478 165.13764008 -61.23002625 165.13371277 C-63 165 -63 165 -64 164 C-65.33069996 163.86633594 -66.66506603 163.76861578 -68 163.6875 C-78.33205743 162.63622548 -86.48766749 156.84743081 -93.484375 149.48828125 C-94.94925826 147.89721278 -94.94925826 147.89721278 -97 147 C-97 146.34 -97 145.68 -97 145 C-97.83144531 144.66162109 -97.83144531 144.66162109 -98.6796875 144.31640625 C-101.68506155 142.61133714 -103.72987003 140.42200049 -106.125 137.9375 C-109.24105765 134.53546517 -109.24105765 134.53546517 -113 132 C-113 131.34 -113 130.68 -113 130 C-113.66 130 -114.32 130 -115 130 C-115 129.34 -115 128.68 -115 128 C-115.66 128 -116.32 128 -117 128 C-117 127.34 -117 126.68 -117 126 C-117.66 126 -118.32 126 -119 126 C-119 125.34 -119 124.68 -119 124 C-119.66 124 -120.32 124 -121 124 C-121 123.34 -121 122.68 -121 122 C-121.66 122 -122.32 122 -123 122 C-123 121.34 -123 120.68 -123 120 C-123.54140625 119.7834375 -124.0828125 119.566875 -124.640625 119.34375 C-127.81645344 117.53500003 -130.20728081 115.08276201 -132.75 112.5 C-133.25660156 112.00113281 -133.76320312 111.50226563 -134.28515625 110.98828125 C-138 107.25341139 -138 107.25341139 -138 105 C-138.86625 104.62875 -138.86625 104.62875 -139.75 104.25 C-144.225432 101.76364889 -146.80341481 98.62596154 -148.453125 93.72265625 C-150.73204123 82.37690904 -149.5058954 72.2055704 -144 62 C-143.34 62 -142.68 62 -142 62 C-141.7525 61.236875 -141.505 60.47375 -141.25 59.6875 C-139.87869328 56.73919055 -138.7648921 55.64165468 -136 54 C-135.34 54 -134.68 54 -134 54 C-134 53.34 -134 52.68 -134 52 C-130.53846154 49 -130.53846154 49 -128 49 C-128 48.34 -128 47.68 -128 47 C-126.35 46.34 -124.7 45.68 -123 45 C-123 44.34 -123 43.68 -123 43 C-122.34 43 -121.68 43 -121 43 C-121 42.34 -121 41.68 -121 41 C-119.50674566 39.81149144 -117.95098717 38.7013947 -116.375 37.625 C-107.67840284 31.46444279 -99.80057871 24.35117591 -91.8125 17.3125 C-86.9856745 13.07355709 -81.9981324 9.03420686 -77 5 C-76.20078125 4.34386719 -75.4015625 3.68773437 -74.578125 3.01171875 C-52.91783541 -14.4285489 -23.30820086 -14.59705509 0 0 Z M-64 17 C-64.77085937 17.54398438 -65.54171875 18.08796875 -66.3359375 18.6484375 C-69.25222963 20.71967615 -69.25222963 20.71967615 -72 23 C-72 23.66 -72 24.32 -72 25 C-72.66 25 -73.32 25 -74 25 C-74 25.66 -74 26.32 -74 27 C-74.55429688 27.24621094 -75.10859375 27.49242187 -75.6796875 27.74609375 C-78.445466 29.24073163 -80.69776863 31.0663739 -83.125 33.0625 C-87.80555556 36.90277778 -87.80555556 36.90277778 -90 38 C-90 38.66 -90 39.32 -90 40 C-90.53625 40.2475 -91.0725 40.495 -91.625 40.75 C-94.5823982 42.30652537 -97.29724051 44.03435673 -100 46 C-100 46.66 -100 47.32 -100 48 C-100.598125 48.28875 -101.19625 48.5775 -101.8125 48.875 C-104.19327792 50.04742026 -104.19327792 50.04742026 -107 52 C-107 52.66 -107 53.32 -107 54 C-107.51691406 54.22042969 -108.03382813 54.44085938 -108.56640625 54.66796875 C-111.97501308 56.5336749 -114.89906952 58.90160627 -117.9375 61.3125 C-118.84918945 62.0230957 -118.84918945 62.0230957 -119.77929688 62.74804688 C-128.41983783 69.22925005 -128.41983783 69.22925005 -132.3359375 78.8046875 C-132.41661679 85.1460796 -132.46243317 89.28257065 -128 94 C-127.01 94.33 -126.02 94.66 -125 95 C-125 95.66 -125 96.32 -125 97 C-124.34 97 -123.68 97 -123 97 C-123 97.66 -123 98.32 -123 99 C-122.34 99 -121.68 99 -121 99 C-121 99.66 -121 100.32 -121 101 C-120.34 101 -119.68 101 -119 101 C-119 101.66 -119 102.32 -119 103 C-118.34 103 -117.68 103 -117 103 C-117 103.66 -117 104.32 -117 105 C-116.34 105 -115.68 105 -115 105 C-115 105.66 -115 106.32 -115 107 C-114.34 107 -113.68 107 -113 107 C-113 107.66 -113 108.32 -113 109 C-112.34 109 -111.68 109 -111 109 C-111 109.66 -111 110.32 -111 111 C-110.34 111 -109.68 111 -109 111 C-109 111.66 -109 112.32 -109 113 C-108.34 113 -107.68 113 -107 113 C-107 113.66 -107 114.32 -107 115 C-106.34 115 -105.68 115 -105 115 C-104.75378906 115.57234375 -104.50757813 116.1446875 -104.25390625 116.734375 C-102.79788765 119.36518743 -101.08222766 121.14808905 -98.9375 123.25 C-97.86822266 124.30960938 -97.86822266 124.30960938 -96.77734375 125.390625 C-95.27607496 127.11186865 -95.27607496 127.11186865 -94 127 C-93.99413376 126.30588516 -93.98826752 125.61177032 -93.98222351 124.8966217 C-93.92406333 118.32109407 -93.85185551 111.74588339 -93.76428509 105.17067814 C-93.71975971 101.79113766 -93.68046594 98.41171278 -93.65356445 95.03198242 C-93.61986885 91.13691389 -93.56754295 87.24246297 -93.51171875 83.34765625 C-93.50532883 82.1473024 -93.4989389 80.94694855 -93.49235535 79.71022034 C-93.34597045 71.27579167 -92.63537154 63.14291148 -86.75 56.625 C-86.20859375 55.99851563 -85.6671875 55.37203125 -85.109375 54.7265625 C-79.82167295 50.39848045 -74.46706517 49.55480935 -67.80493164 49.59594727 C-66.6229847 49.58565239 -66.6229847 49.58565239 -65.41716003 49.57514954 C-62.831305 49.55695724 -60.24606109 49.56070807 -57.66015625 49.56640625 C-55.85086369 49.56184082 -54.04157287 49.55653417 -52.23228455 49.55052185 C-48.44718362 49.54160562 -44.66229385 49.54399689 -40.87719727 49.55395508 C-36.04078377 49.565443 -31.2051006 49.54522851 -26.368783 49.51603794 C-22.63426632 49.49764002 -18.8999235 49.49797554 -15.16537285 49.50367546 C-13.38288791 49.50382824 -11.60039086 49.49782033 -9.8179493 49.48538399 C-7.31966226 49.47040728 -4.82270986 49.48119883 -2.32446289 49.49829102 C-1.59746185 49.48862305 -0.87046082 49.47895508 -0.12142944 49.46899414 C6.14020251 49.5581285 11.34103421 51.61309055 16.0234375 55.81640625 C16.46945312 56.39261719 16.91546875 56.96882813 17.375 57.5625 C18.06722656 58.43068359 18.06722656 58.43068359 18.7734375 59.31640625 C22.57412569 64.53327444 23.10834335 68.53279953 23.20532227 74.8918457 C23.22526749 76.05267166 23.24521271 77.21349762 23.26576233 78.40950012 C23.29083107 80.27380928 23.29083107 80.27380928 23.31640625 82.17578125 C23.33718735 83.45607712 23.35796844 84.73637299 23.37937927 86.0554657 C23.43437572 89.44689729 23.48388312 92.83838735 23.53222656 96.22991943 C23.58260616 99.69564979 23.63820601 103.16129603 23.69335938 106.62695312 C23.80037429 113.4179016 23.90217134 120.20891331 24 127 C26.03833424 125.7260411 28.03852126 124.38938077 30 123 C30 122.34 30 121.68 30 121 C30.66 121 31.32 121 32 121 C32 120.34 32 119.68 32 119 C32.66 119 33.32 119 34 119 C37.02517909 115.94441577 37.02517909 115.94441577 38 112 C38.57234375 111.7525 39.1446875 111.505 39.734375 111.25 C42.35010611 109.80683801 44.14773456 108.11783778 46.25 106 C46.95640625 105.29875 47.6628125 104.5975 48.390625 103.875 C50.21710399 102.15889232 50.21710399 102.15889232 50 100 C50.87785156 99.5978125 50.87785156 99.5978125 51.7734375 99.1875 C56.31345105 96.76615944 59.97686595 93.42195013 62 88.6328125 C63.75307074 81.59861615 62.16848406 76.33696813 59 70 C58.34 70 57.68 70 57 70 C57 69.34 57 68.68 57 68 C56.34 68 55.68 68 55 68 C55 67.34 55 66.68 55 66 C53.46659493 64.76844632 51.86933811 63.61615395 50.25 62.5 C44.70271144 58.58595983 39.57044383 54.34170963 34.43359375 49.90625 C32.25280477 47.79445036 32.25280477 47.79445036 30 48 C30 47.34 30 46.68 30 46 C27.82735345 43.95543941 27.82735345 43.95543941 25.125 41.875 C24.22007812 41.15054688 23.31515625 40.42609375 22.3828125 39.6796875 C20.21344189 37.80794766 20.21344189 37.80794766 18 38 C18 37.34 18 36.68 18 36 C16.59138963 35.02738808 15.17620755 34.06266588 13.7265625 33.15234375 C11.94366112 31.96239826 10.36665529 30.65561408 8.75 29.25 C6.33420883 26.78892074 6.33420883 26.78892074 4 27 C4 26.34 4 25.68 4 25 C3.34 25 2.68 25 2 25 C2 24.34 2 23.68 2 23 C-0.25284523 21.10761001 -2.50002538 19.35251164 -4.875 17.625 C-5.55667236 17.12693848 -6.23834473 16.62887695 -6.94067383 16.11572266 C-12.00780317 12.50666979 -16.98240015 9.71931424 -23 8 C-23.58265625 7.81308594 -24.1653125 7.62617188 -24.765625 7.43359375 C-39.55542541 4.56354507 -52.07063402 8.19395893 -64 17 Z M-72 64 C-72 64.66 -72 65.32 -72 66 C-72.61875 66.0825 -73.2375 66.165 -73.875 66.25 C-76.09656379 66.79963776 -76.09656379 66.79963776 -77.11465454 68.62184143 C-78.28564569 71.76728327 -78.26954155 74.44335072 -78.29052734 77.80053711 C-78.29724457 78.47583969 -78.30396179 79.15114227 -78.31088257 79.84690857 C-78.32984233 82.07379563 -78.33378549 84.30038106 -78.3359375 86.52734375 C-78.3423662 88.07906721 -78.34909461 89.63078946 -78.35610962 91.18251038 C-78.36807683 94.43314423 -78.37179096 97.68367185 -78.37060547 100.93432617 C-78.37040216 105.09516264 -78.39771847 109.25531701 -78.43214989 113.41599178 C-78.45440938 116.62023536 -78.45844334 119.82431442 -78.45738602 123.0286274 C-78.45974287 124.56240759 -78.46857124 126.09619227 -78.48405075 127.62989616 C-78.50369555 129.7771038 -78.49788079 131.92283587 -78.48583984 134.07006836 C-78.48868988 135.29044296 -78.49153992 136.51081757 -78.49447632 137.76817322 C-77.90634791 141.61209674 -76.69983055 143.25538665 -74 146 C-71.04030952 147.47984524 -68.36257713 147.16006912 -65.05932617 147.19287109 C-63.98828896 147.20513733 -63.98828896 147.20513733 -62.89561462 147.21765137 C-60.52807455 147.24250302 -58.16059443 147.2590208 -55.79296875 147.2734375 C-54.98463404 147.27876118 -54.17629932 147.28408485 -53.34346962 147.28956985 C-49.06484551 147.31630064 -44.78625057 147.3356756 -40.50756836 147.35009766 C-36.08878231 147.36674436 -31.67074228 147.41152169 -27.25223827 147.4624691 C-23.85414272 147.49613005 -20.4562245 147.50767375 -17.05797768 147.51332474 C-15.42926648 147.52004062 -13.80056709 147.53527165 -12.17201805 147.55921555 C-9.89034676 147.59084751 -7.61069054 147.59090812 -5.32885742 147.58349609 C-4.03139084 147.59158295 -2.73392426 147.5996698 -1.3971405 147.60800171 C2.84931849 146.8479936 4.2835469 145.26064187 7 142 C7.33 141.67 7.66 141.34 8 141 C8.12068028 138.81847005 8.17028537 136.6329908 8.19287109 134.44824219 C8.20104858 133.76362411 8.20922607 133.07900604 8.21765137 132.37364197 C8.24255133 130.09806198 8.25903509 127.82254467 8.2734375 125.546875 C8.28142302 124.38264385 8.28142302 124.38264385 8.28956985 123.19489288 C8.31632455 119.08485399 8.33568982 114.97484567 8.35009766 110.86474609 C8.3667295 106.6196718 8.41148723 102.37537633 8.4624691 98.13059616 C8.49614067 94.86717851 8.50767506 91.60394544 8.51332474 88.34037018 C8.5200402 86.7758516 8.53527019 85.21134529 8.55921555 83.64699554 C8.59086422 81.45380019 8.59090562 79.26270002 8.58349609 77.06933594 C8.59158295 75.82214783 8.5996698 74.57495972 8.60800171 73.28997803 C7.8382894 69.12496245 6.19100996 67.67893252 3 65 C2.505 64.505 2.505 64.505 2 64 C-0.30053835 63.90556665 -2.60402173 63.88257872 -4.90649414 63.88647461 C-5.98935951 63.88625557 -5.98935951 63.88625557 -7.09410095 63.8860321 C-9.49114947 63.88673131 -11.88812123 63.89452405 -14.28515625 63.90234375 C-15.94282489 63.9042079 -17.60049407 63.90563182 -19.25816345 63.90663147 C-23.62954214 63.91045688 -28.00088781 63.92028735 -32.37225342 63.93133545 C-36.82954461 63.94154908 -41.28684111 63.94612899 -45.74414062 63.95117188 C-54.49610893 63.9619096 -63.24805036 63.97898629 -72 64 Z " fill="#0F0F0F" transform="translate(285,145)"/>
<path d="M0 0 C3 0 3 0 5.1875 1.875 C7 4 7 4 7 6 C7.556875 6.226875 8.11375 6.45375 8.6875 6.6875 C12.04776412 8.59467693 13.70627794 9.77639062 16 13 C16.43651996 16.5007189 16.56253022 19.90249753 16.56640625 23.4296875 C17.27077216 29.22960137 19.69899259 33.11242462 24.06640625 36.80859375 C25.22210458 37.69760518 26.38790014 38.57361626 27.5625 39.4375 C28.17367676 39.90341553 28.78485352 40.36933105 29.41455078 40.84936523 C34.22177984 44.49383717 39.12805537 48.00517959 44.0859375 51.44140625 C44.71757812 51.95574219 45.34921875 52.47007812 46 53 C46 53.66 46 54.32 46 55 C46.57975586 55.27779297 47.15951172 55.55558594 47.75683594 55.84179688 C51.45691854 57.7522444 54.81663903 60.1524546 58.25 62.5 C58.99507812 62.99886719 59.74015625 63.49773437 60.5078125 64.01171875 C61.21164063 64.49253906 61.91546875 64.97335937 62.640625 65.46875 C63.28547852 65.90638672 63.93033203 66.34402344 64.59472656 66.79492188 C65.0584668 67.19259766 65.52220703 67.59027344 66 68 C66 68.66 66 69.32 66 70 C66.58700684 70.27545654 67.17401367 70.55091309 67.77880859 70.8347168 C69.90683879 71.95112569 71.65355379 73.16231911 73.5390625 74.64453125 C74.19720947 75.1545166 74.85535645 75.66450195 75.53344727 76.18994141 C76.56876587 76.99310791 76.56876587 76.99310791 77.625 77.8125 C88.69276139 86.24686728 98.63579745 91.40459985 112.8125 91.3125 C113.70106689 91.30758545 114.58963379 91.3026709 115.50512695 91.29760742 C126.97263752 91.09228518 136.63684592 87.7096087 145.4375 80.1875 C148 78 148 78 150 78 C150 77.34 150 76.68 150 76 C155.41176471 72 155.41176471 72 158 72 C158 71.34 158 70.68 158 70 C160.475 69.01 160.475 69.01 163 68 C163 67.34 163 66.68 163 66 C165.0944968 64.36570249 167.17782091 62.85832766 169.375 61.375 C169.97828125 60.95476562 170.5815625 60.53453125 171.203125 60.1015625 C175.73462865 57 175.73462865 57 178 57 C178 56.34 178 55.68 178 55 C178.66 55 179.32 55 180 55 C180 54.34 180 53.68 180 53 C181.65 52.34 183.3 51.68 185 51 C185 50.34 185 49.68 185 49 C186.8237021 47.4979541 188.71113767 46.07283831 190.625 44.6875 C194.04181319 42.19576068 197.43204442 39.71537136 200.625 36.9375 C203 35 203 35 205 35 C205 34.34 205 33.68 205 33 C205.66 33 206.32 33 207 33 C208.71998397 28.51159562 209.21347015 24.72741731 209.3125 19.9375 C209.74474988 12.35711781 209.74474988 12.35711781 212.4375 9.625 C215 8 215 8 217 8 C217 7.34 217 6.68 217 6 C217.66 6 218.32 6 219 6 C219 5.34 219 4.68 219 4 C223.47058824 0 223.47058824 0 226 0 C226.10024553 3.928468 226.17210244 7.85642234 226.21972656 11.78588867 C226.24930134 13.76572908 226.30017533 15.74521501 226.3515625 17.72460938 C226.46625793 29.05078336 224.7161317 38.07731487 216.75 46.47265625 C214.65450805 48.30153427 212.70741628 49.34365666 210 50 C210 50.66 210 51.32 210 52 C209.34 52 208.68 52 208 52 C208 52.66 208 53.32 208 54 C206.35 54.66 204.7 55.32 203 56 C203 56.66 203 57.32 203 58 C201.05078125 59.59375 201.05078125 59.59375 198.3125 61.5 C193.16487464 65.13676389 188.17328232 68.92516127 183.24145508 72.84960938 C179.21753581 76 179.21753581 76 177 76 C177 76.66 177 77.32 177 78 C164.80788177 89 164.80788177 89 160 89 C160 89.66 160 90.32 160 91 C157.95304216 92.71084494 155.92129676 94.27292493 153.75 95.8125 C153.11755371 96.26173828 152.48510742 96.71097656 151.83349609 97.17382812 C137.91906702 106.77286856 120.49996108 110.80868257 103.67871094 108.71044922 C93.38886333 106.81930483 82.29686548 103.55015696 74 97 C74 96.34 74 95.68 74 95 C73.236875 94.71125 72.47375 94.4225 71.6875 94.125 C69 93 69 93 66 91 C66 90.34 66 89.68 66 89 C65.443125 88.731875 64.88625 88.46375 64.3125 88.1875 C61.78774666 86.89100504 59.36285516 85.57523677 57 84 C57 83.34 57 82.68 57 82 C56.236875 81.71125 55.47375 81.4225 54.6875 81.125 C52 80 52 80 49 78 C49 77.34 49 76.68 49 76 C48.41589355 75.72526855 47.83178711 75.45053711 47.22998047 75.16748047 C45.07067829 74.0370028 43.25453871 72.79762685 41.3203125 71.3203125 C40.63839844 70.80339844 39.95648438 70.28648437 39.25390625 69.75390625 C38.20009766 68.94759766 38.20009766 68.94759766 37.125 68.125 C35.73296271 67.06353928 34.33975178 66.00361576 32.9453125 64.9453125 C32.28047852 64.44032227 31.61564453 63.93533203 30.93066406 63.41503906 C29.1561259 62.11442915 27.34994285 60.9192386 25.4921875 59.7421875 C24.25855469 58.87980469 24.25855469 58.87980469 23 58 C23 57.34 23 56.68 23 56 C22.21625 55.7525 21.4325 55.505 20.625 55.25 C17.53506013 53.77860006 17.46340773 52.92681545 16 50 C15.278125 49.7525 14.55625 49.505 13.8125 49.25 C8.50637252 46.89172112 5.14209991 42.42481872 2.69921875 37.23828125 C-0.52979188 28.63150019 -1.16047225 20.80978046 -1.125 11.6875 C-1.12886719 10.67365234 -1.13273438 9.65980469 -1.13671875 8.61523438 C-1.13542969 7.65294922 -1.13414062 6.69066406 -1.1328125 5.69921875 C-1.13112061 4.38183716 -1.13112061 4.38183716 -1.12939453 3.0378418 C-1 1 -1 1 0 0 Z " fill="#0E0E0E" transform="translate(137,258)"/>
<path d="M0 0 C9.57 0 19.14 0 29 0 C29 3.63 29 7.26 29 11 C24.05 11 19.1 11 14 11 C14 13.97 14 16.94 14 20 C18.29 20 22.58 20 27 20 C28.1898306 22.3796612 28.13349966 23.91485735 28.125 26.5625 C28.12886719 27.77099609 28.12886719 27.77099609 28.1328125 29.00390625 C28 31 28 31 27 32 C22.66469082 32.14393457 18.33842269 32.04212061 14 32 C14 38.6 14 45.2 14 52 C3.94140625 52.09765625 3.94140625 52.09765625 1 52 C0 51 0 51 -0.12025452 48.94358826 C-0.11803391 48.03979935 -0.11581329 47.13601044 -0.11352539 46.20483398 C-0.11344986 45.18385117 -0.11337433 44.16286835 -0.11329651 43.11094666 C-0.10813522 42.0005452 -0.10297394 40.89014374 -0.09765625 39.74609375 C-0.0962413 38.61551041 -0.09482635 37.48492706 -0.09336853 36.32008362 C-0.08775019 32.69252935 -0.07519458 29.06503576 -0.0625 25.4375 C-0.05748736 22.98502693 -0.05292405 20.5325529 -0.04882812 18.08007812 C-0.0386237 12.05334296 -0.01905186 6.02673978 0 0 Z " fill="#101010" transform="translate(236,225)"/>
<path d="M0 0 C0 0.99 0 1.98 0 3 C-1.63064764 4.05771739 -3.30280873 5.05273046 -5 6 C-6.75149165 7.58245275 -6.75149165 7.58245275 -8 9 C-8.33 8.01 -8.66 7.02 -9 6 C-8.34 6 -7.68 6 -7 6 C-7 5.34 -7 4.68 -7 4 C-2.52941176 0 -2.52941176 0 0 0 Z " fill="#363636" transform="translate(363,258)"/>
<path d="M0 0 C0.66 0.33 1.32 0.66 2 1 C-0.31 3.31 -2.62 5.62 -5 8 C-5 5 -5 5 -2.5 2.3125 C-1.675 1.549375 -0.85 0.78625 0 0 Z " fill="#4D4D4D" transform="translate(149,199)"/>
</svg>
